<svg width="35pt" height="5pt" viewBox="0 0 35 5" xmlns="http://www.w3.org/2000/svg"><g id="fontsvg1664479438615" stroke-linecap="round" fill-rule="evenodd" fill="#ffffff"><path d="M 12.161 0.018 L 12.973 0.103 L 13.91 1.767 L 14.08 2.238 L 14.08 1.98 L 13.951 0.615 L 13.995 0.486 A 0.506 0.506 0 0 1 14.03 0.309 Q 14.111 0.112 14.379 0.062 L 14.848 0.018 L 15.018 0.103 A 2.149 2.149 0 0 1 15.117 0.511 A 2.859 2.859 0 0 1 15.146 0.87 L 15.105 1.339 L 15.146 1.468 L 15.146 1.553 L 15.19 1.553 L 15.146 1.597 L 15.062 2.194 L 15.062 2.323 L 15.105 2.323 L 15.062 2.452 L 15.146 2.748 L 15.105 2.877 L 15.146 3.686 L 15.062 3.814 L 14.42 4.028 A 1.476 1.476 0 0 1 13.922 3.802 A 1.761 1.761 0 0 1 13.825 3.729 A 2.91 2.91 0 0 1 13.658 3.358 A 3.658 3.658 0 0 1 13.57 3.091 A 3.809 3.809 0 0 1 13.375 2.819 A 4.882 4.882 0 0 1 13.228 2.578 L 12.929 1.98 L 13.099 1.383 L 13.143 1.128 L 12.885 1.128 L 13.058 1.257 L 12.844 1.808 L 12.759 1.937 L 12.885 2.493 L 12.973 3.773 L 12.759 3.94 L 12.035 4.028 A 0.963 0.963 0 0 1 11.834 3.692 A 1.304 1.304 0 0 1 11.777 3.472 L 11.821 3.003 L 11.777 2.707 L 11.821 2.323 L 11.733 1.553 L 11.777 1.298 L 11.821 1.169 Q 11.796 0.882 11.719 0.521 A 8.114 8.114 0 0 0 11.692 0.401 A 0.919 0.919 0 0 1 12.059 0.065 A 1.17 1.17 0 0 1 12.161 0.018 Z M 24.041 0.041 L 24.756 0.126 A 0.939 0.939 0 0 1 25.054 0.316 A 1.302 1.302 0 0 1 25.222 0.507 L 25.433 1.052 L 25.641 1.222 L 25.726 0.885 L 25.937 0.337 A 0.805 0.805 0 0 1 26.333 0.141 A 1.04 1.04 0 0 1 26.443 0.126 L 27.029 0.17 L 27.158 0.211 L 27.284 0.422 L 26.736 1.137 A 3.06 3.06 0 0 1 26.586 1.362 Q 26.505 1.474 26.406 1.592 A 4.995 4.995 0 0 1 26.399 1.6 L 26.232 1.939 Q 26.268 2.033 26.358 2.104 L 26.695 2.525 L 26.988 3.076 L 27.369 3.451 A 1.859 1.859 0 0 1 27.436 3.609 Q 27.467 3.694 27.495 3.791 L 27.325 3.958 L 27.029 4.043 L 26.903 4.002 L 26.654 4.002 A 1.715 1.715 0 0 1 26.104 3.706 L 25.811 3.243 A 3.612 3.612 0 0 0 25.684 2.918 A 4.582 4.582 0 0 0 25.556 2.654 L 25.307 3.032 L 25.052 3.58 Q 24.891 3.8 24.674 4.002 L 24 3.958 A 0.553 0.553 0 0 1 23.769 3.867 Q 23.646 3.781 23.578 3.621 A 3.93 3.93 0 0 1 23.765 3.349 A 4.901 4.901 0 0 1 23.915 3.158 L 24.545 2.232 A 1.314 1.314 0 0 0 24.756 1.77 A 2.653 2.653 0 0 1 24.421 1.371 A 2.981 2.981 0 0 1 24.378 1.307 L 24.085 0.841 L 23.707 0.422 A 0.811 0.811 0 0 1 23.991 0.074 A 1.007 1.007 0 0 1 24.041 0.041 Z M 30.668 0.217 L 31.178 0.044 Q 31.441 0.088 31.731 0.217 L 32.156 1.661 A 2.26 2.26 0 0 0 32.285 2.215 A 0.838 0.838 0 0 0 32.455 2.59 A 1.026 1.026 0 0 0 32.499 2.643 L 32.411 2.344 L 32.455 2.215 L 32.54 1.62 L 32.839 0.598 A 0.574 0.574 0 0 1 33.033 0.222 A 0.793 0.793 0 0 1 33.094 0.173 L 33.349 0.044 L 33.521 0.173 Q 33.744 0.097 34.031 0.088 L 34.157 0.343 L 34.031 0.513 A 2.955 2.955 0 0 0 33.953 0.783 A 3.853 3.853 0 0 0 33.902 1.025 L 33.393 2.47 A 2.148 2.148 0 0 0 33.264 2.897 L 33.135 3.322 A 2.987 2.987 0 0 1 33.023 3.686 A 3.496 3.496 0 0 1 32.965 3.832 A 1.244 1.244 0 0 1 32.54 4.002 L 31.901 4.046 A 1.335 1.335 0 0 1 31.754 3.856 A 1.796 1.796 0 0 1 31.646 3.665 L 31.307 2.643 A 1.906 1.906 0 0 1 31.165 2.267 A 2.24 2.24 0 0 1 31.134 2.13 A 2.23 2.23 0 0 0 31.042 1.924 Q 30.989 1.818 30.92 1.705 Q 30.888 1.438 30.794 1.151 L 30.539 0.302 L 30.668 0.217 Z M 15.756 0.366 L 16.046 0.073 L 16.84 0.199 L 16.925 0.158 L 17.048 0.158 L 17.048 0.117 L 17.593 0.199 L 18.135 0.158 L 18.595 0.24 A 2.329 2.329 0 0 1 18.642 0.458 Q 18.664 0.59 18.677 0.741 Q 18.618 0.967 18.469 1.16 L 17.927 1.201 L 17.341 1.16 L 17.007 1.078 L 16.884 1.119 L 16.799 1.242 L 16.84 1.579 L 16.966 1.62 L 17.801 1.535 L 18.384 1.579 L 18.513 2.08 L 18.384 2.54 L 17.845 2.625 L 17.007 2.496 A 0.201 0.201 0 0 0 16.941 2.522 A 0.178 0.178 0 0 0 16.884 2.581 L 16.84 2.707 A 1.145 1.145 0 0 1 16.867 2.84 Q 16.88 2.932 16.884 3.041 L 16.925 3.416 L 16.884 3.542 L 16.925 3.879 L 16.755 3.961 L 16.298 4.002 Q 16.104 3.988 15.878 3.896 A 2.018 2.018 0 0 1 15.838 3.879 A 1.036 1.036 0 0 1 15.706 3.62 A 1.269 1.269 0 0 1 15.671 3.501 L 15.756 2.956 L 15.712 2.414 L 15.756 1.954 L 15.712 1.371 L 15.756 0.993 L 15.712 0.867 L 15.671 0.492 L 15.756 0.366 Z M 7.708 0.111 L 7.881 0.067 L 8.183 0.152 L 8.312 0.111 L 9.267 0.067 L 9.396 0.111 L 9.527 0.372 L 9.568 0.545 L 9.48 1.02 L 9.267 1.107 L 8.531 0.976 L 8.572 1.626 L 8.531 1.755 L 8.572 2.707 L 8.531 3.185 L 8.572 3.357 L 8.572 3.659 Q 8.344 3.979 7.922 4.093 A 2.366 2.366 0 0 1 7.359 3.92 L 7.315 3.747 L 7.359 3.659 L 7.403 2.924 L 7.359 2.317 L 7.447 2.188 L 7.403 2.06 L 7.315 1.67 L 7.488 1.236 A 0.132 0.132 0 0 0 7.458 1.186 Q 7.434 1.162 7.397 1.153 A 0.193 0.193 0 0 0 7.359 1.148 L 6.753 1.28 A 1.104 1.104 0 0 1 6.471 0.72 A 1.423 1.423 0 0 1 6.451 0.586 Q 6.557 0.231 6.926 0.023 Q 7.215 0.079 7.585 0.104 A 8.103 8.103 0 0 0 7.708 0.111 Z M 28.708 0.111 L 28.881 0.067 L 29.183 0.152 L 29.312 0.111 L 30.267 0.067 L 30.396 0.111 L 30.527 0.372 L 30.568 0.545 L 30.48 1.02 L 30.267 1.107 L 29.531 0.976 L 29.572 1.626 L 29.531 1.755 L 29.572 2.707 L 29.531 3.185 L 29.572 3.357 L 29.572 3.659 Q 29.344 3.979 28.922 4.093 A 2.366 2.366 0 0 1 28.359 3.92 L 28.315 3.747 L 28.359 3.659 L 28.403 2.924 L 28.359 2.317 L 28.447 2.188 L 28.403 2.06 L 28.315 1.67 L 28.488 1.236 A 0.132 0.132 0 0 0 28.458 1.186 Q 28.434 1.162 28.397 1.153 A 0.193 0.193 0 0 0 28.359 1.148 L 27.753 1.28 A 1.104 1.104 0 0 1 27.471 0.72 A 1.423 1.423 0 0 1 27.451 0.586 Q 27.557 0.231 27.926 0.023 Q 28.215 0.079 28.585 0.104 A 8.103 8.103 0 0 0 28.708 0.111 Z M 4.014 0.141 L 4.392 0.015 A 2.266 2.266 0 0 1 4.896 0.1 L 5.232 0.308 A 2.016 2.016 0 0 1 5.32 0.483 Q 5.36 0.574 5.397 0.679 A 3.246 3.246 0 0 1 5.399 0.686 L 5.607 1.441 L 5.777 1.775 L 5.9 2.197 L 6.111 2.531 A 1.53 1.53 0 0 0 6.196 2.845 A 1.792 1.792 0 0 0 6.24 2.95 L 6.404 3.331 L 6.489 3.624 L 6.419 3.771 L 6.085 3.979 L 5.707 3.979 L 5.707 4.02 L 5.581 3.979 A 0.723 0.723 0 0 1 5.388 3.865 A 0.939 0.939 0 0 1 5.288 3.771 A 1.434 1.434 0 0 1 5.21 3.51 A 1.187 1.187 0 0 1 5.188 3.331 L 5.104 3.287 L 4.939 3.369 L 4.854 3.331 L 4.307 3.331 A 0.552 0.552 0 0 0 4.031 3.552 A 0.699 0.699 0 0 0 4.014 3.58 L 3.803 3.917 L 3.384 4.043 L 2.924 3.958 A 1.189 1.189 0 0 1 2.782 3.814 A 1.588 1.588 0 0 1 2.672 3.665 L 3.006 2.912 L 3.05 2.449 L 3.261 2.068 L 3.639 0.853 L 3.803 0.519 A 1.591 1.591 0 0 1 3.981 0.186 A 1.799 1.799 0 0 1 4.014 0.141 Z M 1.233 0.24 L 1.274 0.621 L 1.233 1.046 L 1.274 1.386 L 1.233 1.512 L 1.233 1.682 L 1.146 1.811 L 1.233 2.534 L 1.189 2.874 L 1.614 2.915 L 2.039 2.786 L 2.338 2.874 A 0.725 0.725 0 0 1 2.592 3.223 A 1.012 1.012 0 0 1 2.634 3.381 A 0.746 0.746 0 0 0 2.669 3.521 A 1.001 1.001 0 0 0 2.719 3.639 L 2.464 3.976 L 1.74 4.02 L 1.614 3.932 L 0.299 4.02 L 0.17 3.85 L 0.041 3.466 L 0.085 3.085 L 0.085 2.534 L 0.126 2.405 L 0.085 2.235 L 0.085 0.621 L 0 0.492 A 0.977 0.977 0 0 1 0.348 0.096 A 1.262 1.262 0 0 1 0.466 0.026 A 1.611 1.611 0 0 1 0.889 0.1 A 2.219 2.219 0 0 1 1.233 0.24 Z M 20.317 0.24 L 20.358 0.621 L 20.317 1.046 L 20.358 1.386 L 20.317 1.512 L 20.317 1.682 L 20.229 1.811 L 20.317 2.534 L 20.273 2.874 L 20.698 2.915 L 21.123 2.786 L 21.422 2.874 A 0.725 0.725 0 0 1 21.676 3.223 A 1.012 1.012 0 0 1 21.718 3.381 A 0.746 0.746 0 0 0 21.753 3.521 A 1.001 1.001 0 0 0 21.803 3.639 L 21.548 3.976 L 20.824 4.02 L 20.698 3.932 L 19.383 4.02 L 19.254 3.85 L 19.125 3.466 L 19.169 3.085 L 19.169 2.534 L 19.21 2.405 L 19.169 2.235 L 19.169 0.621 L 19.084 0.492 A 0.977 0.977 0 0 1 19.432 0.096 A 1.262 1.262 0 0 1 19.55 0.026 A 1.611 1.611 0 0 1 19.973 0.1 A 2.219 2.219 0 0 1 20.317 0.24 Z M 10.049 0.17 L 10.605 0 Q 10.89 0.082 11.162 0.214 L 11.206 0.858 L 11.118 1.245 L 11.206 1.415 L 11.118 2.572 L 11.206 2.83 L 11.162 3.132 L 11.162 3.217 L 11.206 3.217 L 11.162 3.261 L 11.247 3.732 L 11.162 3.861 A 0.986 0.986 0 0 1 10.804 4.007 A 1.296 1.296 0 0 1 10.605 4.031 A 1.66 1.66 0 0 1 10.191 3.893 A 1.99 1.99 0 0 1 10.049 3.817 L 10.002 3.431 L 10.049 3.132 L 9.961 3.003 A 0.895 0.895 0 0 0 10.033 2.78 A 1.118 1.118 0 0 0 10.049 2.657 L 10.09 2.057 L 10.049 1.5 L 10.09 1.374 L 10.002 0.299 L 10.049 0.17 Z M 22.313 0.17 L 22.869 0 Q 23.153 0.082 23.426 0.214 L 23.47 0.858 L 23.382 1.245 L 23.47 1.415 L 23.382 2.572 L 23.47 2.83 L 23.426 3.132 L 23.426 3.217 L 23.47 3.217 L 23.426 3.261 L 23.511 3.732 L 23.426 3.861 A 0.986 0.986 0 0 1 23.068 4.007 A 1.296 1.296 0 0 1 22.869 4.031 A 1.66 1.66 0 0 1 22.455 3.893 A 1.99 1.99 0 0 1 22.312 3.817 L 22.266 3.431 L 22.313 3.132 L 22.225 3.003 A 0.895 0.895 0 0 0 22.297 2.78 A 1.118 1.118 0 0 0 22.313 2.657 L 22.354 2.057 L 22.313 1.5 L 22.354 1.374 L 22.266 0.299 L 22.313 0.17 Z M 4.392 2.112 L 4.351 2.408 L 4.729 2.449 A 0.23 0.23 0 0 0 4.846 2.34 A 0.302 0.302 0 0 0 4.854 2.323 L 4.77 1.945 A 2.669 2.669 0 0 0 4.649 1.676 A 3.526 3.526 0 0 0 4.518 1.441 Q 4.506 1.752 4.392 2.112 Z M 12.765 0.971 A 2.376 2.376 0 0 0 12.8 0.999 Q 12.758 0.705 12.484 0.573 A 0.852 0.852 0 0 0 12.375 0.53 Q 12.507 0.761 12.765 0.971 Z M 8.051 1.843 L 7.969 1.711 L 7.837 2.273 L 7.969 2.232 L 8.051 1.843 Z M 29.051 1.843 L 28.969 1.711 L 28.837 2.273 L 28.969 2.232 L 29.051 1.843 Z M 13.825 2.238 L 13.482 2.238 A 1.786 1.786 0 0 0 13.638 2.368 Q 13.723 2.431 13.824 2.492 A 2.254 2.254 0 0 0 13.825 2.493 L 13.866 2.323 L 13.825 2.238 Z M 5.063 2.783 L 5.314 3.205 A 1.016 1.016 0 0 0 5.085 2.807 A 1.193 1.193 0 0 0 5.063 2.783 Z M 16.216 0.993 Q 16.333 1.222 16.591 1.242 A 0.451 0.451 0 0 0 16.307 1.013 A 0.678 0.678 0 0 0 16.216 0.993 Z M 3.721 1.693 A 0.641 0.641 0 0 0 3.937 1.922 A 0.86 0.86 0 0 0 4.058 1.986 A 0.968 0.968 0 0 0 3.815 1.752 A 1.181 1.181 0 0 0 3.721 1.693 Z M 4.266 1.022 L 4.181 1.356 L 4.351 1.356 A 0.704 0.704 0 0 0 4.288 1.069 A 0.842 0.842 0 0 0 4.266 1.022 Z M 0.381 2.235 A 1.411 1.411 0 0 0 0.548 2.422 A 1.788 1.788 0 0 0 0.68 2.534 A 0.753 0.753 0 0 0 0.463 2.29 A 0.937 0.937 0 0 0 0.381 2.235 Z M 19.465 2.235 A 1.411 1.411 0 0 0 19.632 2.422 A 1.788 1.788 0 0 0 19.764 2.534 A 0.753 0.753 0 0 0 19.547 2.29 A 0.937 0.937 0 0 0 19.465 2.235 Z M 26.399 3.158 A 0.367 0.367 0 0 0 26.432 3.286 Q 26.492 3.411 26.654 3.451 A 1.019 1.019 0 0 0 26.522 3.274 A 1.337 1.337 0 0 0 26.399 3.158 Z M 25.307 1.433 A 0.714 0.714 0 0 0 25.421 1.66 A 0.935 0.935 0 0 0 25.518 1.77 A 0.615 0.615 0 0 0 25.307 1.433 Z M 33.349 0.981 L 33.308 0.938 A 0.518 0.518 0 0 0 33.193 1.071 A 0.716 0.716 0 0 0 33.135 1.192 L 33.349 1.192 L 33.349 0.981 Z M 31.603 2.174 A 0.909 0.909 0 0 0 31.778 2.281 A 1.214 1.214 0 0 0 31.942 2.344 Q 31.802 2.232 31.603 2.174 Z M 10.605 3.261 L 10.477 3.217 L 10.433 3.431 L 10.562 3.475 L 10.605 3.261 Z M 22.869 3.261 L 22.74 3.217 L 22.696 3.431 L 22.825 3.475 L 22.869 3.261 Z M 14.464 0.829 L 14.335 0.788 L 14.294 0.999 L 14.379 0.955 L 14.42 0.999 L 14.464 0.829 Z M 4.6 0.645 L 4.518 0.519 L 4.351 0.56 Q 4.4 0.65 4.518 0.727 L 4.6 0.645 Z M 14.253 2.833 L 14.08 2.792 L 13.995 2.962 L 14.253 2.833 Z M 5.399 2.323 L 5.232 2.323 L 5.232 2.531 L 5.399 2.323 Z M 7.969 1.28 A 0.533 0.533 0 0 0 7.9 1.445 A 0.739 0.739 0 0 0 7.881 1.582 A 0.621 0.621 0 0 0 7.963 1.345 A 0.758 0.758 0 0 0 7.969 1.28 Z M 28.969 1.28 A 0.533 0.533 0 0 0 28.9 1.445 A 0.739 0.739 0 0 0 28.881 1.582 A 0.621 0.621 0 0 0 28.963 1.345 A 0.758 0.758 0 0 0 28.969 1.28 Z M 32.625 3.451 L 32.411 3.451 L 32.499 3.618 L 32.625 3.451 Z M 16.424 1.494 L 16.254 1.453 A 0.405 0.405 0 0 0 16.263 1.534 Q 16.282 1.617 16.339 1.664 L 16.424 1.494 Z M 2.08 3.466 L 1.825 3.34 A 0.485 0.485 0 0 0 2.08 3.466 Z M 21.164 3.466 L 20.909 3.34 A 0.485 0.485 0 0 0 21.164 3.466 Z M 5.104 0.768 L 4.854 0.768 Q 4.862 0.821 4.926 0.847 A 0.226 0.226 0 0 0 4.939 0.853 L 5.104 0.768 Z M 12.331 2.578 L 12.12 2.578 L 12.29 2.707 L 12.331 2.578 Z M 17.634 0.659 L 17.508 0.618 L 17.508 0.826 L 17.634 0.659 Z M 4.225 0.938 L 4.014 0.768 A 0.387 0.387 0 0 0 4.139 0.893 A 0.532 0.532 0 0 0 4.225 0.937 Z M 25.263 2.232 A 0.531 0.531 0 0 0 25.374 2.339 A 0.712 0.712 0 0 0 25.474 2.399 A 0.454 0.454 0 0 0 25.35 2.28 A 0.6 0.6 0 0 0 25.263 2.232 Z M 12.929 1.213 L 12.759 1.213 L 12.759 1.339 L 12.8 1.339 L 12.929 1.213 Z M 14.593 3.346 A 0.535 0.535 0 0 0 14.433 3.427 A 0.661 0.661 0 0 0 14.379 3.472 A 0.323 0.323 0 0 0 14.476 3.447 A 0.258 0.258 0 0 0 14.593 3.346 Z M 14.08 3.047 A 0.258 0.258 0 0 0 14.162 3.161 Q 14.2 3.193 14.253 3.217 Q 14.202 3.141 14.11 3.069 A 1 1 0 0 0 14.08 3.047 Z M 14.678 2.15 L 14.464 2.065 Q 14.558 2.142 14.678 2.15 Z M 25.722 2.267 A 0.759 0.759 0 0 0 25.726 2.273 A 0.321 0.321 0 0 0 25.679 2.116 A 0.431 0.431 0 0 0 25.641 2.063 Q 25.655 2.162 25.722 2.267 Z M 7.058 0.545 L 6.973 0.674 L 7.146 0.63 A 0.114 0.114 0 0 0 7.126 0.599 Q 7.105 0.574 7.066 0.55 A 0.432 0.432 0 0 0 7.058 0.545 Z M 28.058 0.545 L 27.973 0.674 L 28.146 0.63 A 0.114 0.114 0 0 0 28.126 0.599 Q 28.105 0.574 28.066 0.55 A 0.432 0.432 0 0 0 28.058 0.545 Z M 0.51 0.662 L 0.466 0.832 L 0.595 0.747 A 0.089 0.089 0 0 0 0.564 0.693 Q 0.551 0.681 0.532 0.672 A 0.234 0.234 0 0 0 0.51 0.662 Z M 19.594 0.662 L 19.55 0.832 L 19.679 0.747 A 0.089 0.089 0 0 0 19.648 0.693 Q 19.635 0.681 19.616 0.672 A 0.234 0.234 0 0 0 19.594 0.662 Z M 16.714 2.039 L 16.673 1.872 L 16.591 1.995 L 16.714 2.039 Z M 3.343 3.331 L 3.261 3.454 L 3.428 3.413 Q 3.416 3.357 3.343 3.331 Z M 7.917 0.755 A 0.479 0.479 0 0 0 7.922 0.759 A 0.408 0.408 0 0 0 7.84 0.63 A 0.517 0.517 0 0 0 7.793 0.586 Q 7.816 0.683 7.917 0.755 Z M 28.917 0.755 A 0.479 0.479 0 0 0 28.922 0.759 A 0.408 0.408 0 0 0 28.84 0.63 A 0.517 0.517 0 0 0 28.793 0.586 Q 28.816 0.683 28.917 0.755 Z M 12.545 3.176 L 12.375 3.047 A 0.256 0.256 0 0 0 12.439 3.127 A 0.241 0.241 0 0 0 12.545 3.176 Z M 12.46 1.937 L 12.29 1.808 Q 12.349 1.901 12.46 1.937 Z M 3.847 2.238 L 3.68 2.112 A 0.284 0.284 0 0 0 3.82 2.229 A 0.369 0.369 0 0 0 3.847 2.238 Z M 10.731 0.472 L 10.605 0.472 L 10.69 0.601 L 10.731 0.472 Z M 22.995 0.472 L 22.869 0.472 L 22.954 0.601 L 22.995 0.472 Z M 8.01 2.578 L 7.922 2.666 L 8.098 2.622 L 8.01 2.578 Z M 29.01 2.578 L 28.922 2.666 L 29.098 2.622 L 29.01 2.578 Z M 25.811 2.443 L 25.767 2.273 L 25.726 2.399 L 25.811 2.443 Z M 10.605 2.701 L 10.433 2.616 A 0.196 0.196 0 0 0 10.575 2.699 A 0.266 0.266 0 0 0 10.605 2.701 Z M 22.869 2.701 L 22.696 2.616 A 0.196 0.196 0 0 0 22.839 2.699 A 0.266 0.266 0 0 0 22.869 2.701 Z M 32.839 2.897 L 32.666 2.81 A 0.245 0.245 0 0 0 32.836 2.897 A 0.303 0.303 0 0 0 32.839 2.897 Z M 5.525 1.775 L 5.481 1.775 L 5.44 1.904 L 5.525 1.904 L 5.525 1.775 Z M 14.335 1.682 L 14.42 1.854 A 0.309 0.309 0 0 0 14.335 1.682 Z M 8.01 3.097 L 7.881 3.229 A 0.196 0.196 0 0 0 7.941 3.204 Q 7.99 3.172 8.006 3.112 A 0.214 0.214 0 0 0 8.01 3.097 Z M 29.01 3.097 L 28.881 3.229 A 0.196 0.196 0 0 0 28.941 3.204 Q 28.99 3.172 29.006 3.112 A 0.214 0.214 0 0 0 29.01 3.097 Z M 0.765 3.425 A 0.213 0.213 0 0 0 0.865 3.54 A 0.295 0.295 0 0 0 0.894 3.554 Q 0.861 3.463 0.765 3.425 Z M 19.849 3.425 A 0.213 0.213 0 0 0 19.949 3.54 A 0.295 0.295 0 0 0 19.978 3.554 Q 19.945 3.463 19.849 3.425 Z M 17.177 1.954 L 17.259 2.121 A 0.345 0.345 0 0 0 17.177 1.954 Z M 17.716 1.995 Q 17.751 2.086 17.845 2.121 A 0.199 0.199 0 0 0 17.733 2.002 A 0.269 0.269 0 0 0 17.716 1.995 Z M 5.232 1.608 A 0.282 0.282 0 0 0 5.291 1.684 Q 5.318 1.71 5.354 1.731 A 0.482 0.482 0 0 0 5.358 1.734 A 0.208 0.208 0 0 0 5.247 1.615 A 0.283 0.283 0 0 0 5.232 1.608 Z M 7.881 2.795 L 7.837 2.88 L 7.922 2.924 L 7.922 2.795 L 7.881 2.795 Z M 28.881 2.795 L 28.837 2.88 L 28.922 2.924 L 28.922 2.795 L 28.881 2.795 Z M 25.222 2.358 L 25.137 2.358 L 25.178 2.484 L 25.222 2.358 Z M 33.053 2.089 L 32.965 2.045 L 33.009 2.174 L 33.053 2.089 Z M 10.518 0.814 A 0.14 0.14 0 0 0 10.559 0.869 Q 10.585 0.889 10.621 0.896 A 0.204 0.204 0 0 0 10.646 0.899 Q 10.611 0.838 10.518 0.814 Z M 22.781 0.814 A 0.14 0.14 0 0 0 22.823 0.869 Q 22.849 0.889 22.884 0.896 A 0.204 0.204 0 0 0 22.91 0.899 Q 22.875 0.838 22.781 0.814 Z M 25.263 1.939 L 25.307 1.896 L 25.178 1.854 Q 25.195 1.896 25.263 1.939 Z M 14.848 1.512 L 14.722 1.468 A 0.103 0.103 0 0 0 14.767 1.534 A 0.173 0.173 0 0 0 14.804 1.553 L 14.848 1.512 Z M 7.881 1.236 L 7.793 1.107 A 0.206 0.206 0 0 0 7.822 1.18 A 0.189 0.189 0 0 0 7.881 1.236 Z M 28.881 1.236 L 28.793 1.107 A 0.206 0.206 0 0 0 28.822 1.18 A 0.189 0.189 0 0 0 28.881 1.236 Z M 33.521 0.683 L 33.475 0.771 L 33.563 0.771 L 33.563 0.683 L 33.521 0.683 Z M 31.433 2.089 L 31.562 2.174 Q 31.526 2.112 31.433 2.089 Z M 8.312 1.02 L 8.183 0.935 Q 8.216 0.985 8.288 1.012 A 0.358 0.358 0 0 0 8.312 1.02 Z M 29.312 1.02 L 29.183 0.935 Q 29.216 0.985 29.288 1.012 A 0.358 0.358 0 0 0 29.312 1.02 Z M 12.161 0.999 L 12.29 1.084 A 0.197 0.197 0 0 0 12.229 1.028 Q 12.204 1.013 12.172 1.002 A 0.366 0.366 0 0 0 12.161 0.999 Z M 4.143 2.657 A 0.163 0.163 0 0 0 4.209 2.773 A 0.228 0.228 0 0 0 4.225 2.783 Q 4.21 2.701 4.143 2.657 Z M 25.682 1.348 L 25.767 1.474 A 0.193 0.193 0 0 0 25.744 1.41 A 0.168 0.168 0 0 0 25.682 1.348 Z M 10.69 0.642 L 10.646 0.642 L 10.69 0.771 L 10.69 0.642 Z M 22.954 0.642 L 22.91 0.642 L 22.954 0.771 L 22.954 0.642 Z M 25.222 1.811 L 25.137 1.685 Q 25.154 1.767 25.222 1.811 Z M 16.33 0.783 A 0.317 0.317 0 0 0 16.339 0.785 A 0.147 0.147 0 0 0 16.284 0.728 Q 16.256 0.71 16.216 0.7 Q 16.249 0.759 16.33 0.783 Z M 14.124 2.238 L 14.039 2.364 A 0.176 0.176 0 0 0 14.101 2.297 Q 14.114 2.273 14.123 2.242 A 0.328 0.328 0 0 0 14.124 2.238 Z M 0.639 0.961 L 0.721 1.087 A 0.185 0.185 0 0 0 0.702 1.025 A 0.161 0.161 0 0 0 0.639 0.961 Z M 19.723 0.961 L 19.805 1.087 A 0.185 0.185 0 0 0 19.785 1.025 A 0.161 0.161 0 0 0 19.723 0.961 Z M 32.071 2.728 L 32.03 2.728 L 32.071 2.856 L 32.071 2.728 Z M 16.38 2.581 L 16.506 2.663 A 0.14 0.14 0 0 0 16.459 2.614 Q 16.439 2.601 16.413 2.591 A 0.327 0.327 0 0 0 16.38 2.581 Z M 17.968 2.039 L 18.094 2.121 A 0.155 0.155 0 0 0 18.042 2.069 Q 18.011 2.05 17.968 2.039 Z M 16.254 3.249 L 16.216 3.334 L 16.298 3.334 L 16.298 3.249 L 16.254 3.249 Z M 16.632 0.533 L 16.755 0.618 A 0.147 0.147 0 0 0 16.7 0.561 Q 16.672 0.543 16.632 0.533 Z M 7.62 0.674 A 0.096 0.096 0 0 0 7.652 0.727 Q 7.673 0.746 7.708 0.759 A 0.097 0.097 0 0 0 7.69 0.728 Q 7.668 0.7 7.62 0.674 Z M 28.62 0.674 A 0.096 0.096 0 0 0 28.652 0.727 Q 28.673 0.746 28.708 0.759 A 0.097 0.097 0 0 0 28.69 0.728 Q 28.668 0.7 28.62 0.674 Z M 5.548 2.271 A 0.24 0.24 0 0 0 5.566 2.279 Q 5.559 2.232 5.502 2.205 A 0.226 0.226 0 0 0 5.481 2.197 Q 5.494 2.243 5.548 2.271 Z M 5.651 3.287 Q 5.663 3.343 5.736 3.369 Q 5.727 3.326 5.675 3.298 A 0.237 0.237 0 0 0 5.651 3.287 Z M 16.4 3.071 A 0.237 0.237 0 0 0 16.424 3.082 A 0.094 0.094 0 0 0 16.408 3.054 Q 16.39 3.032 16.355 3.01 A 0.424 0.424 0 0 0 16.339 3 Q 16.349 3.043 16.4 3.071 Z M 5.736 2.994 A 0.099 0.099 0 0 0 5.753 3.022 Q 5.771 3.045 5.806 3.068 A 0.417 0.417 0 0 0 5.818 3.076 Q 5.81 3.021 5.736 2.994 Z M 10.605 2.443 L 10.646 2.531 L 10.646 2.443 L 10.605 2.443 Z M 22.869 2.443 L 22.91 2.531 L 22.91 2.443 L 22.869 2.443 Z M 12.545 1.043 L 12.589 1.128 L 12.589 1.043 L 12.545 1.043 Z M 12.46 2.323 L 12.504 2.405 L 12.504 2.323 L 12.46 2.323 Z M 26.314 0.885 L 26.358 0.967 L 26.358 0.885 L 26.314 0.885 Z" vector-effect="non-scaling-stroke"/></g></svg>